<?xml version="1.0" encoding="UTF-8" standalone="no"?>
<!DOCTYPE svg PUBLIC "-//W3C//DTD SVG 1.1//EN" "http://www.w3.org/Graphics/SVG/1.1/DTD/svg11.dtd">
<svg xmlns="http://www.w3.org/2000/svg" version="1.1" viewBox="0.00 0.00 100.00 100.00">
<g stroke-width="2.00" fill="none" stroke-linecap="butt">
<path stroke="#8198ad" vector-effect="non-scaling-stroke" d="
  M 34.61 0.00
  C 15.79 3.16 2.87 18.45 5.20 37.99
  Q 5.74 42.51 7.60 46.63
  Q 11.75 55.79 19.60 61.78"
/>
<path stroke="#969696" vector-effect="non-scaling-stroke" d="
  M 19.60 61.78
  Q 19.49 70.30 19.55 78.25
  C 19.60 85.20 23.81 87.14 30.50 87.14
  Q 40.32 87.14 64.36 87.21
  A 3.17 3.14 -70.7 0 0 66.83 86.01
  L 80.07 69.24
  A 2.97 2.91 -26.6 0 0 80.69 67.44
  Q 80.67 49.70 80.74 23.04
  Q 80.75 18.81 79.49 16.81
  Q 77.80 14.13 74.25 13.26
  Q 71.66 12.63 62.49 13.48"
/>
<path stroke="#8198ad" vector-effect="non-scaling-stroke" d="
  M 62.49 13.48
  Q 53.16 2.79 39.78 0.00"
/>
<path stroke="#182e44" vector-effect="non-scaling-stroke" d="
  M 62.49 13.48
  Q 63.98 14.89 64.77 18.09"
/>
<path stroke="#8198ad" vector-effect="non-scaling-stroke" d="
  M 64.77 18.09
  C 65.81 20.62 67.07 23.47 67.53 26.02
  Q 69.88 38.94 60.87 48.51
  A 0.36 0.36 0.0 0 1 60.31 48.07
  Q 65.92 39.18 64.68 28.56
  Q 63.96 22.43 60.43 18.17"
/>
<path stroke="#182e44" vector-effect="non-scaling-stroke" d="
  M 60.43 18.17
  L 56.42 13.12"
/>
<path stroke="#8198ad" vector-effect="non-scaling-stroke" d="
  M 56.42 13.12
  Q 49.24 7.22 41.03 6.60
  Q 32.47 5.95 24.97 10.96
  C 12.32 19.42 9.95 37.34 19.04 49.43
  Q 19.30 49.77 19.70 49.54"
/>
<path stroke="#182e44" vector-effect="non-scaling-stroke" d="
  M 19.70 49.54
  Q 21.46 51.99 24.44 53.45"
/>
<path stroke="#8198ad" vector-effect="non-scaling-stroke" d="
  M 24.44 53.45
  Q 26.33 55.40 29.69 56.89
  A 0.64 0.63 -61.5 0 1 29.96 57.82
  Q 27.92 60.94 27.10 64.62
  A 0.54 0.54 0.0 0 1 26.40 65.01
  L 24.46 64.38"
/>
<path stroke="#182e44" vector-effect="non-scaling-stroke" d="
  M 24.46 64.38
  Q 21.90 63.72 19.60 61.78"
/>
<path stroke="#969696" vector-effect="non-scaling-stroke" d="
  M 56.42 13.12
  Q 41.81 13.32 27.50 13.23
  Q 23.10 13.20 20.60 17.03
  Q 19.36 18.95 19.51 25.18
  Q 19.64 30.38 19.49 47.50
  Q 19.48 48.56 19.70 49.54"
/>
<path stroke="#969696" vector-effect="non-scaling-stroke" d="
  M 60.43 18.17
  L 43.91 18.11"
/>
<path stroke="#182e44" vector-effect="non-scaling-stroke" d="
  M 43.91 18.11
  Q 40.74 14.94 38.01 18.12"
/>
<path stroke="#969696" vector-effect="non-scaling-stroke" d="
  M 38.01 18.12
  Q 32.35 18.05 27.23 18.32
  Q 24.40 18.46 24.41 21.00
  Q 24.42 36.95 24.44 53.45"
/>
<path stroke="#969696" vector-effect="non-scaling-stroke" d="
  M 24.46 64.38
  Q 24.40 71.20 24.43 77.85
  C 24.44 79.94 24.90 81.83 27.24 81.85
  Q 40.66 81.92 60.24 81.81
  A 0.42 0.42 0.0 0 0 60.66 81.39
  C 60.67 77.60 59.75 70.28 62.15 67.06
  C 65.44 62.66 70.31 63.72 75.19 63.65
  A 0.51 0.51 0.0 0 0 75.69 63.14
  L 75.69 20.66
  A 1.45 1.39 -56.4 0 0 75.60 20.16
  C 74.47 17.24 68.27 18.22 64.77 18.09"
/>
<path stroke="#969696" vector-effect="non-scaling-stroke" d="
  M 73.39 68.76
  L 68.55 68.76
  A 2.88 2.88 0.0 0 0 65.67 71.64
  L 65.67 78.64
  A 0.23 0.23 0.0 0 0 66.08 78.79
  L 73.62 69.23
  A 0.29 0.29 0.0 0 0 73.39 68.76"
/>
<path stroke="#8198ad" vector-effect="non-scaling-stroke" d="
  M 43.91 18.11
  Q 40.59 19.08 43.38 25.86
  C 46.37 33.11 50.22 39.01 45.97 47.24
  Q 44.05 50.96 41.20 54.31
  A 1.74 1.74 0.0 0 0 40.93 56.14
  L 44.13 63.30
  A 2.21 2.19 -46.3 0 1 44.16 65.02
  L 38.24 79.54
  A 0.71 0.71 0.0 0 1 36.93 79.56
  L 30.29 64.70
  A 1.23 1.23 0.0 0 1 30.42 63.49
  C 35.31 56.64 35.75 50.28 36.66 40.71
  C 36.94 37.79 38.10 34.15 37.86 31.62
  A 0.48 0.47 -28.1 0 0 37.02 31.37
  C 35.14 33.71 34.66 38.24 33.96 41.16
  C 33.06 44.90 33.38 49.11 32.68 52.65
  A 0.68 0.67 25.8 0 1 31.58 53.03
  C 23.52 46.13 22.72 36.94 28.42 28.17
  Q 32.15 22.44 38.01 18.12"
/>
<path stroke="#8198ad" vector-effect="non-scaling-stroke" d="
  M 38.77 65.39
  L 36.55 65.10
  A 0.68 0.68 0.0 0 0 35.78 65.69
  L 35.72 66.17
  A 2.88 1.76 -82.7 0 0 37.10 69.25
  L 37.18 69.26
  A 2.88 1.76 -82.7 0 0 39.29 66.63
  L 39.36 66.15
  A 0.68 0.68 0.0 0 0 38.77 65.39"
/>
<path stroke="#8198ad" vector-effect="non-scaling-stroke" d="
  M 37.2348 70.8701
  A 1.45 0.89 -90.6 0 0 36.3600 72.3293
  A 1.45 0.89 -90.6 0 0 37.2652 73.7699
  A 1.45 0.89 -90.6 0 0 38.1400 72.3107
  A 1.45 0.89 -90.6 0 0 37.2348 70.8701"
/>
<path stroke="#8198ad" vector-effect="non-scaling-stroke" d="
  M 50.79 59.96
  L 55.83 55.82
  A 0.78 0.77 63.5 0 0 56.09 55.03
  L 56.02 54.73
  A 0.66 0.65 66.9 0 0 55.04 54.33
  Q 49.79 57.62 45.00 57.97
  A 0.22 0.21 76.4 0 0 44.82 58.27
  L 47.76 64.86
  A 0.29 0.28 -20.2 0 0 48.10 65.01
  Q 52.16 63.79 55.17 60.93
  A 0.53 0.53 0.0 0 0 54.68 60.04
  L 51.24 60.88
  A 0.53 0.52 -71.3 0 1 50.79 59.96"
/>
</g>
<path fill="#ffffff" d="
  M 34.61 0.00
  C 15.79 3.16 2.87 18.45 5.20 37.99
  Q 5.74 42.51 7.60 46.63
  Q 11.75 55.79 19.60 61.78
  Q 19.49 70.30 19.55 78.25
  C 19.60 85.20 23.81 87.14 30.50 87.14
  Q 40.32 87.14 64.36 87.21
  A 3.17 3.14 -70.7 0 0 66.83 86.01
  L 80.07 69.24
  A 2.97 2.91 -26.6 0 0 80.69 67.44
  Q 80.67 49.70 80.74 23.04
  Q 80.75 18.81 79.49 16.81
  Q 77.80 14.13 74.25 13.26
  Q 71.66 12.63 62.49 13.48
  Q 53.16 2.79 39.78 0.00
  L 100.00 0.00
  L 100.00 100.00
  L 0.00 100.00
  L 0.00 0.00
  L 34.61 0.00
  Z"
/>
<path fill="#03305b" d="
  M 39.78 0.00
  Q 53.16 2.79 62.49 13.48
  Q 63.98 14.89 64.77 18.09
  C 65.81 20.62 67.07 23.47 67.53 26.02
  Q 69.88 38.94 60.87 48.51
  A 0.36 0.36 0.0 0 1 60.31 48.07
  Q 65.92 39.18 64.68 28.56
  Q 63.96 22.43 60.43 18.17
  L 56.42 13.12
  Q 49.24 7.22 41.03 6.60
  Q 32.47 5.95 24.97 10.96
  C 12.32 19.42 9.95 37.34 19.04 49.43
  Q 19.30 49.77 19.70 49.54
  Q 21.46 51.99 24.44 53.45
  Q 26.33 55.40 29.69 56.89
  A 0.64 0.63 -61.5 0 1 29.96 57.82
  Q 27.92 60.94 27.10 64.62
  A 0.54 0.54 0.0 0 1 26.40 65.01
  L 24.46 64.38
  Q 21.90 63.72 19.60 61.78
  Q 11.75 55.79 7.60 46.63
  Q 5.74 42.51 5.20 37.99
  C 2.87 18.45 15.79 3.16 34.61 0.00
  L 39.78 0.00
  Z"
/>
<path fill="#ffffff" d="
  M 56.42 13.12
  Q 41.81 13.32 27.50 13.23
  Q 23.10 13.20 20.60 17.03
  Q 19.36 18.95 19.51 25.18
  Q 19.64 30.38 19.49 47.50
  Q 19.48 48.56 19.70 49.54
  Q 19.30 49.77 19.04 49.43
  C 9.95 37.34 12.32 19.42 24.97 10.96
  Q 32.47 5.95 41.03 6.60
  Q 49.24 7.22 56.42 13.12
  Z"
/>
<path fill="#2c2c2c" d="
  M 60.43 18.17
  L 43.91 18.11
  Q 40.74 14.94 38.01 18.12
  Q 32.35 18.05 27.23 18.32
  Q 24.40 18.46 24.41 21.00
  Q 24.42 36.95 24.44 53.45
  Q 21.46 51.99 19.70 49.54
  Q 19.48 48.56 19.49 47.50
  Q 19.64 30.38 19.51 25.18
  Q 19.36 18.95 20.60 17.03
  Q 23.10 13.20 27.50 13.23
  Q 41.81 13.32 56.42 13.12
  L 60.43 18.17
  Z"
/>
<path fill="#2c2c2c" d="
  M 19.60 61.78
  Q 21.90 63.72 24.46 64.38
  Q 24.40 71.20 24.43 77.85
  C 24.44 79.94 24.90 81.83 27.24 81.85
  Q 40.66 81.92 60.24 81.81
  A 0.42 0.42 0.0 0 0 60.66 81.39
  C 60.67 77.60 59.75 70.28 62.15 67.06
  C 65.44 62.66 70.31 63.72 75.19 63.65
  A 0.51 0.51 0.0 0 0 75.69 63.14
  L 75.69 20.66
  A 1.45 1.39 -56.4 0 0 75.60 20.16
  C 74.47 17.24 68.27 18.22 64.77 18.09
  Q 63.98 14.89 62.49 13.48
  Q 71.66 12.63 74.25 13.26
  Q 77.80 14.13 79.49 16.81
  Q 80.75 18.81 80.74 23.04
  Q 80.67 49.70 80.69 67.44
  A 2.97 2.91 -26.6 0 1 80.07 69.24
  L 66.83 86.01
  A 3.17 3.14 -70.7 0 1 64.36 87.21
  Q 40.32 87.14 30.50 87.14
  C 23.81 87.14 19.60 85.20 19.55 78.25
  Q 19.49 70.30 19.60 61.78
  Z
  M 73.39 68.76
  L 68.55 68.76
  A 2.88 2.88 0.0 0 0 65.67 71.64
  L 65.67 78.64
  A 0.23 0.23 0.0 0 0 66.08 78.79
  L 73.62 69.23
  A 0.29 0.29 0.0 0 0 73.39 68.76
  Z"
/>
<path fill="#03305b" d="
  M 43.91 18.11
  Q 40.59 19.08 43.38 25.86
  C 46.37 33.11 50.22 39.01 45.97 47.24
  Q 44.05 50.96 41.20 54.31
  A 1.74 1.74 0.0 0 0 40.93 56.14
  L 44.13 63.30
  A 2.21 2.19 -46.3 0 1 44.16 65.02
  L 38.24 79.54
  A 0.71 0.71 0.0 0 1 36.93 79.56
  L 30.29 64.70
  A 1.23 1.23 0.0 0 1 30.42 63.49
  C 35.31 56.64 35.75 50.28 36.66 40.71
  C 36.94 37.79 38.10 34.15 37.86 31.62
  A 0.48 0.47 -28.1 0 0 37.02 31.37
  C 35.14 33.71 34.66 38.24 33.96 41.16
  C 33.06 44.90 33.38 49.11 32.68 52.65
  A 0.68 0.67 25.8 0 1 31.58 53.03
  C 23.52 46.13 22.72 36.94 28.42 28.17
  Q 32.15 22.44 38.01 18.12
  Q 40.74 14.94 43.91 18.11
  Z
  M 38.77 65.39
  L 36.55 65.10
  A 0.68 0.68 0.0 0 0 35.78 65.69
  L 35.72 66.17
  A 2.88 1.76 -82.7 0 0 37.10 69.25
  L 37.18 69.26
  A 2.88 1.76 -82.7 0 0 39.29 66.63
  L 39.36 66.15
  A 0.68 0.68 0.0 0 0 38.77 65.39
  Z
  M 37.2348 70.8701
  A 1.45 0.89 -90.6 0 0 36.3600 72.3293
  A 1.45 0.89 -90.6 0 0 37.2652 73.7699
  A 1.45 0.89 -90.6 0 0 38.1400 72.3107
  A 1.45 0.89 -90.6 0 0 37.2348 70.8701
  Z"
/>
<path fill="#ffffff" d="
  M 38.01 18.12
  Q 32.15 22.44 28.42 28.17
  C 22.72 36.94 23.52 46.13 31.58 53.03
  A 0.68 0.67 25.8 0 0 32.68 52.65
  C 33.38 49.11 33.06 44.90 33.96 41.16
  C 34.66 38.24 35.14 33.71 37.02 31.37
  A 0.48 0.47 -28.1 0 1 37.86 31.62
  C 38.10 34.15 36.94 37.79 36.66 40.71
  C 35.75 50.28 35.31 56.64 30.42 63.49
  A 1.23 1.23 0.0 0 0 30.29 64.70
  L 36.93 79.56
  A 0.71 0.71 0.0 0 0 38.24 79.54
  L 44.16 65.02
  A 2.21 2.19 -46.3 0 0 44.13 63.30
  L 40.93 56.14
  A 1.74 1.74 0.0 0 1 41.20 54.31
  Q 44.05 50.96 45.97 47.24
  C 50.22 39.01 46.37 33.11 43.38 25.86
  Q 40.59 19.08 43.91 18.11
  L 60.43 18.17
  Q 63.96 22.43 64.68 28.56
  Q 65.92 39.18 60.31 48.07
  A 0.36 0.36 0.0 0 0 60.87 48.51
  Q 69.88 38.94 67.53 26.02
  C 67.07 23.47 65.81 20.62 64.77 18.09
  C 68.27 18.22 74.47 17.24 75.60 20.16
  A 1.45 1.39 -56.4 0 1 75.69 20.66
  L 75.69 63.14
  A 0.51 0.51 0.0 0 1 75.19 63.65
  C 70.31 63.72 65.44 62.66 62.15 67.06
  C 59.75 70.28 60.67 77.60 60.66 81.39
  A 0.42 0.42 0.0 0 1 60.24 81.81
  Q 40.66 81.92 27.24 81.85
  C 24.90 81.83 24.44 79.94 24.43 77.85
  Q 24.40 71.20 24.46 64.38
  L 26.40 65.01
  A 0.54 0.54 0.0 0 0 27.10 64.62
  Q 27.92 60.94 29.96 57.82
  A 0.64 0.63 -61.5 0 0 29.69 56.89
  Q 26.33 55.40 24.44 53.45
  Q 24.42 36.95 24.41 21.00
  Q 24.40 18.46 27.23 18.32
  Q 32.35 18.05 38.01 18.12
  Z
  M 50.79 59.96
  L 55.83 55.82
  A 0.78 0.77 63.5 0 0 56.09 55.03
  L 56.02 54.73
  A 0.66 0.65 66.9 0 0 55.04 54.33
  Q 49.79 57.62 45.00 57.97
  A 0.22 0.21 76.4 0 0 44.82 58.27
  L 47.76 64.86
  A 0.29 0.28 -20.2 0 0 48.10 65.01
  Q 52.16 63.79 55.17 60.93
  A 0.53 0.53 0.0 0 0 54.68 60.04
  L 51.24 60.88
  A 0.53 0.52 -71.3 0 1 50.79 59.96
  Z"
/>
<path fill="#03305b" d="
  M 50.79 59.96
  A 0.53 0.52 -71.3 0 0 51.24 60.88
  L 54.68 60.04
  A 0.53 0.53 0.0 0 1 55.17 60.93
  Q 52.16 63.79 48.10 65.01
  A 0.29 0.28 -20.2 0 1 47.76 64.86
  L 44.82 58.27
  A 0.22 0.21 76.4 0 1 45.00 57.97
  Q 49.79 57.62 55.04 54.33
  A 0.66 0.65 66.9 0 1 56.02 54.73
  L 56.09 55.03
  A 0.78 0.77 63.5 0 1 55.83 55.82
  L 50.79 59.96
  Z"
/>
<path fill="#ffffff" d="
  M 38.77 65.39
  A 0.68 0.68 0.0 0 1 39.36 66.15
  L 39.29 66.63
  A 2.88 1.76 -82.7 0 1 37.18 69.26
  L 37.10 69.25
  A 2.88 1.76 -82.7 0 1 35.72 66.17
  L 35.78 65.69
  A 0.68 0.68 0.0 0 1 36.55 65.10
  L 38.77 65.39
  Z"
/>
<path fill="#ffffff" d="
  M 73.62 69.23
  L 66.08 78.79
  A 0.23 0.23 0.0 0 1 65.67 78.64
  L 65.67 71.64
  A 2.88 2.88 0.0 0 1 68.55 68.76
  L 73.39 68.76
  A 0.29 0.29 0.0 0 1 73.62 69.23
  Z"
/>
<ellipse fill="#ffffff" cx="0.00" cy="0.00" transform="translate(37.25,72.32) rotate(-90.6)" rx="1.45" ry="0.89"/>
</svg>
