<?xml version="1.0" encoding="UTF-8" standalone="no"?>
<!DOCTYPE svg PUBLIC "-//W3C//DTD SVG 1.1//EN" "http://www.w3.org/Graphics/SVG/1.1/DTD/svg11.dtd">
<svg xmlns="http://www.w3.org/2000/svg" version="1.1" viewBox="0.00 0.00 170.00 170.00">
<g stroke-width="2.00" fill="none" stroke-linecap="butt">
<path stroke="#7991a8" vector-effect="non-scaling-stroke" d="
  M 87.12 155.37
  Q 87.96 151.44 87.13 147.43"
/>
<path stroke="#7991a8" vector-effect="non-scaling-stroke" d="
  M 86.18 147.22
  Q 85.32 151.02 86.03 155.26"
/>
</g>
<path fill="#03305b" d="
  M 95.17 0.00
  C 97.87 0.77 100.77 1.06 103.28 1.76
  Q 111.36 4.02 116.79 6.96
  Q 145.93 22.78 151.04 55.23
  C 151.76 59.75 151.80 66.28 150.79 70.79
  C 150.07 73.98 149.82 76.37 148.91 79.39
  Q 145.02 92.21 136.17 102.11
  A 0.23 0.23 0.0 0 1 135.85 102.14
  A 0.17 0.17 0.0 0 1 135.81 101.91
  Q 143.48 89.55 145.40 79.00
  Q 146.58 72.47 146.22 63.39
  Q 145.91 55.38 143.06 48.16
  Q 135.09 27.98 115.47 17.75
  Q 108.09 13.90 102.33 12.95
  C 99.60 12.51 94.57 11.62 91.20 11.67
  Q 80.24 11.81 72.52 14.81
  Q 46.16 25.04 37.65 52.59
  Q 36.45 56.49 36.29 59.50
  C 36.11 62.98 35.40 65.36 35.61 68.86
  Q 36.26 79.93 38.66 86.41
  Q 47.03 109.06 70.98 118.66
  A 0.42 0.42 0.0 0 1 71.19 119.26
  C 68.44 124.08 65.70 129.97 65.26 135.10
  A 1.21 1.20 12.5 0 1 63.64 136.13
  Q 37.90 126.52 25.68 102.06
  Q 20.70 92.10 19.50 83.79
  Q 17.93 72.93 18.17 68.48
  C 18.35 65.24 18.60 58.73 19.59 54.21
  Q 23.44 36.60 35.24 22.88
  Q 35.64 22.42 35.89 22.28
  Q 36.26 22.06 36.37 21.62
  Q 36.44 21.32 36.78 20.96
  Q 53.02 3.91 76.45 0.00
  L 95.17 0.00
  Z"
/>
<path fill="#03305b" d="
  M 87.12 155.37
  Q 87.96 151.44 87.13 147.43
  Q 87.62 146.36 87.62 144.95
  A 1.95 1.93 -22.7 0 1 88.19 143.58
  L 90.24 141.53
  A 2.12 2.11 55.1 0 0 90.66 139.15
  C 87.38 132.07 80.07 138.69 84.91 143.22
  A 2.86 2.83 16.9 0 1 85.78 144.83
  L 86.18 147.22
  Q 85.32 151.02 86.03 155.26
  L 85.79 168.68
  A 0.16 0.16 0.0 0 1 85.49 168.74
  Q 84.47 166.49 83.49 163.25
  Q 79.00 148.51 72.07 136.34
  A 3.58 3.57 47.8 0 1 72.25 132.52
  C 77.05 125.72 80.79 117.93 81.81 109.74
  C 82.33 105.52 82.96 102.48 83.19 98.07
  Q 83.55 91.06 84.23 87.29
  C 85.22 81.88 85.33 76.14 86.78 70.82
  A 0.20 0.17 -40.3 0 0 86.79 70.76
  L 87.58 62.01
  A 0.21 0.21 0.0 0 0 87.19 61.90
  Q 85.16 65.92 83.56 71.52
  Q 81.84 77.60 80.39 84.54
  C 79.55 88.53 79.42 92.35 78.77 95.56
  C 77.75 100.58 77.33 106.42 77.08 110.80
  A 0.51 0.50 -71.0 0 1 76.29 111.19
  Q 56.00 96.94 60.21 75.40
  Q 62.37 64.38 70.84 53.27
  C 77.59 44.41 86.61 35.93 96.81 31.44
  A 0.23 0.23 0.0 0 1 97.13 31.65
  L 97.24 44.65
  A 2.64 2.46 38.2 0 0 97.36 45.42
  C 98.48 48.76 98.82 50.78 99.96 53.48
  Q 101.53 57.21 105.97 67.30
  Q 109.59 75.52 109.15 85.39
  Q 108.86 91.66 105.74 97.69
  Q 101.42 106.03 94.86 113.53
  A 3.12 3.11 56.1 0 0 94.26 116.63
  Q 97.04 124.58 102.37 132.82
  A 1.07 1.05 38.2 0 1 102.49 133.75
  C 102.04 135.12 101.02 137.60 100.20 139.20
  Q 94.01 151.15 90.12 164.14
  Q 89.40 166.55 89.13 168.56
  A 0.64 0.63 -77.7 0 1 88.32 169.09
  Q 87.76 168.91 87.77 168.38
  Q 87.87 161.68 87.12 155.37
  Z"
/>
<path fill="#03305b" d="
  M 126.51 113.56
  A 0.53 0.53 0.0 0 1 127.06 114.43
  L 118.67 122.83
  A 0.52 0.48 -20.0 0 0 118.51 123.14
  Q 118.28 125.07 115.13 126.96
  A 0.69 0.69 0.0 0 0 115.70 128.20
  L 124.99 125.11
  A 0.34 0.34 0.0 0 1 125.36 125.65
  Q 119.38 132.83 109.52 135.83
  A 0.93 0.93 0.0 0 1 108.36 135.21
  C 106.94 130.56 105.41 125.77 102.90 122.00
  A 0.43 0.43 0.0 0 1 103.18 121.34
  Q 109.18 120.32 114.52 118.59
  Q 117.95 117.48 120.58 116.25
  Q 125.54 113.91 126.51 113.56
  Z"
/>
<path fill="#f0f3f6" fill-opacity="0.996" d="
  M 86.18 147.22
  L 87.13 147.43
  Q 87.96 151.44 87.12 155.37
  Q 86.58 155.32 86.03 155.26
  Q 85.32 151.02 86.18 147.22
  Z"
/>
</svg>
